<mxfile host="app.diagrams.net" agent="Mozilla/5.0 (Windows NT 10.0; Win64; x64) AppleWebKit/537.36 (KHTML, like Gecko) Chrome/135.0.0.0 Safari/537.36" version="26.2.14">
  <diagram name="Page-1" id="KNXhQL6K-kjbBeh-hn3h">
    <mxGraphModel dx="1302" dy="495" grid="0" gridSize="10" guides="1" tooltips="1" connect="1" arrows="1" fold="1" page="0" pageScale="1" pageWidth="850" pageHeight="1100" math="0" shadow="0">
      <root>
        <mxCell id="0" />
        <mxCell id="1" parent="0" />
        <mxCell id="eGLLSzxL9SWsZL_DigLu-1" value="" style="rounded=0;whiteSpace=wrap;html=1;fillColor=#ffe6cc;strokeColor=#d79b00;" parent="1" vertex="1">
          <mxGeometry x="-5" y="170" width="265" height="60" as="geometry" />
        </mxCell>
        <mxCell id="eGLLSzxL9SWsZL_DigLu-3" value="" style="rounded=0;whiteSpace=wrap;html=1;fillColor=#e1d5e7;strokeColor=#9673a6;" parent="1" vertex="1">
          <mxGeometry x="260" y="170" width="162" height="60" as="geometry" />
        </mxCell>
        <mxCell id="eGLLSzxL9SWsZL_DigLu-4" value="" style="rounded=0;whiteSpace=wrap;html=1;fillColor=#f8cecc;strokeColor=#b85450;" parent="1" vertex="1">
          <mxGeometry x="422" y="170" width="223" height="60" as="geometry" />
        </mxCell>
        <mxCell id="eGLLSzxL9SWsZL_DigLu-5" value="" style="rounded=0;whiteSpace=wrap;html=1;fillColor=#dae8fc;strokeColor=#6c8ebf;" parent="1" vertex="1">
          <mxGeometry x="645" y="170" width="62" height="60" as="geometry" />
        </mxCell>
        <mxCell id="eGLLSzxL9SWsZL_DigLu-7" value="&lt;b&gt;&lt;font style=&quot;font-size: 17px;&quot;&gt;Time&lt;/font&gt;&lt;/b&gt;" style="text;html=1;align=center;verticalAlign=middle;whiteSpace=wrap;rounded=0;" parent="1" vertex="1">
          <mxGeometry x="-11" y="131" width="87" height="30" as="geometry" />
        </mxCell>
        <mxCell id="eGLLSzxL9SWsZL_DigLu-8" value="" style="endArrow=classic;html=1;rounded=0;fontSize=12;startSize=8;endSize=8;curved=1;" parent="1" source="eGLLSzxL9SWsZL_DigLu-7" edge="1">
          <mxGeometry width="50" height="50" relative="1" as="geometry">
            <mxPoint x="415" y="235" as="sourcePoint" />
            <mxPoint x="188" y="145" as="targetPoint" />
          </mxGeometry>
        </mxCell>
        <mxCell id="XDPWbBcztFEsE1uuQXTy-1" value="" style="rounded=0;whiteSpace=wrap;html=1;fillColor=#d5e8d4;strokeColor=#82b366;" parent="1" vertex="1">
          <mxGeometry x="707" y="170" width="94" height="60" as="geometry" />
        </mxCell>
        <mxCell id="XDPWbBcztFEsE1uuQXTy-2" value="&lt;b&gt;&lt;font style=&quot;font-size: 17px;&quot;&gt;Task 1&lt;/font&gt;&lt;/b&gt;" style="text;html=1;align=center;verticalAlign=middle;whiteSpace=wrap;rounded=0;" parent="1" vertex="1">
          <mxGeometry x="56" y="185" width="87" height="30" as="geometry" />
        </mxCell>
        <mxCell id="XDPWbBcztFEsE1uuQXTy-3" value="&lt;b&gt;&lt;font style=&quot;font-size: 17px;&quot;&gt;Task 2&lt;/font&gt;&lt;/b&gt;" style="text;html=1;align=center;verticalAlign=middle;whiteSpace=wrap;rounded=0;" parent="1" vertex="1">
          <mxGeometry x="293" y="185" width="87" height="30" as="geometry" />
        </mxCell>
        <mxCell id="XDPWbBcztFEsE1uuQXTy-4" value="&lt;b&gt;&lt;font style=&quot;font-size: 17px;&quot;&gt;Task 3&lt;/font&gt;&lt;/b&gt;" style="text;html=1;align=center;verticalAlign=middle;whiteSpace=wrap;rounded=0;" parent="1" vertex="1">
          <mxGeometry x="490" y="185" width="87" height="30" as="geometry" />
        </mxCell>
        <mxCell id="XDPWbBcztFEsE1uuQXTy-5" value="&lt;b&gt;&lt;font style=&quot;font-size: 17px;&quot;&gt;Task 4&lt;/font&gt;&lt;/b&gt;" style="text;html=1;align=center;verticalAlign=middle;whiteSpace=wrap;rounded=0;" parent="1" vertex="1">
          <mxGeometry x="632.5" y="185" width="87" height="30" as="geometry" />
        </mxCell>
        <mxCell id="XDPWbBcztFEsE1uuQXTy-6" value="&lt;b&gt;&lt;font style=&quot;font-size: 17px;&quot;&gt;Task 5&lt;/font&gt;&lt;/b&gt;" style="text;html=1;align=center;verticalAlign=middle;whiteSpace=wrap;rounded=0;" parent="1" vertex="1">
          <mxGeometry x="707" y="185" width="87" height="30" as="geometry" />
        </mxCell>
        <mxCell id="XDPWbBcztFEsE1uuQXTy-7" value="&lt;b&gt;&lt;font style=&quot;font-size: 17px;&quot;&gt;Auto&lt;/font&gt;&lt;/b&gt;&lt;span style=&quot;color: rgba(0, 0, 0, 0); font-family: monospace; font-size: 0px; text-align: start; text-wrap-mode: nowrap;&quot;&gt;%3CmxGraphModel%3E%3Croot%3E%3CmxCell%20id%3D%220%22%2F%3E%3CmxCell%20id%3D%221%22%20parent%3D%220%22%2F%3E%3CmxCell%20id%3D%222%22%20value%3D%22%26lt%3Bb%26gt%3B%26lt%3Bfont%20style%3D%26quot%3Bfont-size%3A%2017px%3B%26quot%3B%26gt%3BTask%201%26lt%3B%2Ffont%26gt%3B%26lt%3B%2Fb%26gt%3B%22%20style%3D%22text%3Bhtml%3D1%3Balign%3Dcenter%3BverticalAlign%3Dmiddle%3BwhiteSpace%3Dwrap%3Brounded%3D0%3B%22%20vertex%3D%221%22%20parent%3D%221%22%3E%3CmxGeometry%20x%3D%2256%22%20y%3D%22185%22%20width%3D%2287%22%20height%3D%2230%22%20as%3D%22geometry%22%2F%3E%3C%2FmxCell%3E%3C%2Froot%3E%3C%2FmxGraphModel%3E&lt;/span&gt;" style="text;html=1;align=center;verticalAlign=middle;whiteSpace=wrap;rounded=0;" parent="1" vertex="1">
          <mxGeometry x="632.5" y="239" width="87" height="30" as="geometry" />
        </mxCell>
        <mxCell id="XDPWbBcztFEsE1uuQXTy-8" value="&lt;b&gt;&lt;font style=&quot;font-size: 17px;&quot;&gt;Auto&lt;/font&gt;&lt;/b&gt;&lt;span style=&quot;color: rgba(0, 0, 0, 0); font-family: monospace; font-size: 0px; text-align: start; text-wrap-mode: nowrap;&quot;&gt;%3CmxGraphModel%3E%3Croot%3E%3CmxCell%20id%3D%220%22%2F%3E%3CmxCell%20id%3D%221%22%20parent%3D%220%22%2F%3E%3CmxCell%20id%3D%222%22%20value%3D%22%26lt%3Bb%26gt%3B%26lt%3Bfont%20style%3D%26quot%3Bfont-size%3A%2017px%3B%26quot%3B%26gt%3BTask%201%26lt%3B%2Ffont%26gt%3B%26lt%3B%2Fb%26gt%3B%22%20style%3D%22text%3Bhtml%3D1%3Balign%3Dcenter%3BverticalAlign%3Dmiddle%3BwhiteSpace%3Dwrap%3Brounded%3D0%3B%22%20vertex%3D%221%22%20parent%3D%221%22%3E%3CmxGeometry%20x%3D%2256%22%20y%3D%22185%22%20width%3D%2287%22%20height%3D%2230%22%20as%3D%22geometry%22%2F%3E%3C%2FmxCell%3E%3C%2Froot%3E%3C%2FmxGraphModel%3E&lt;/span&gt;" style="text;html=1;align=center;verticalAlign=middle;whiteSpace=wrap;rounded=0;" parent="1" vertex="1">
          <mxGeometry x="293" y="239" width="87" height="30" as="geometry" />
        </mxCell>
        <mxCell id="XDPWbBcztFEsE1uuQXTy-9" value="&lt;span style=&quot;font-size: 17px;&quot;&gt;&lt;b&gt;Teleop&lt;/b&gt;&lt;/span&gt;" style="text;html=1;align=center;verticalAlign=middle;whiteSpace=wrap;rounded=0;" parent="1" vertex="1">
          <mxGeometry x="493" y="239" width="87" height="30" as="geometry" />
        </mxCell>
        <mxCell id="XDPWbBcztFEsE1uuQXTy-10" value="&lt;span style=&quot;font-size: 17px;&quot;&gt;&lt;b&gt;Teleop&lt;/b&gt;&lt;/span&gt;" style="text;html=1;align=center;verticalAlign=middle;whiteSpace=wrap;rounded=0;" parent="1" vertex="1">
          <mxGeometry x="59" y="239" width="87" height="30" as="geometry" />
        </mxCell>
        <mxCell id="XDPWbBcztFEsE1uuQXTy-11" value="&lt;b&gt;&lt;font style=&quot;font-size: 17px;&quot;&gt;Auto&lt;/font&gt;&lt;/b&gt;&lt;span style=&quot;color: rgba(0, 0, 0, 0); font-family: monospace; font-size: 0px; text-align: start; text-wrap-mode: nowrap;&quot;&gt;%3CmxGraphModel%3E%3Croot%3E%3CmxCell%20id%3D%220%22%2F%3E%3CmxCell%20id%3D%221%22%20parent%3D%220%22%2F%3E%3CmxCell%20id%3D%222%22%20value%3D%22%26lt%3Bb%26gt%3B%26lt%3Bfont%20style%3D%26quot%3Bfont-size%3A%2017px%3B%26quot%3B%26gt%3BTask%201%26lt%3B%2Ffont%26gt%3B%26lt%3B%2Fb%26gt%3B%22%20style%3D%22text%3Bhtml%3D1%3Balign%3Dcenter%3BverticalAlign%3Dmiddle%3BwhiteSpace%3Dwrap%3Brounded%3D0%3B%22%20vertex%3D%221%22%20parent%3D%221%22%3E%3CmxGeometry%20x%3D%2256%22%20y%3D%22185%22%20width%3D%2287%22%20height%3D%2230%22%20as%3D%22geometry%22%2F%3E%3C%2FmxCell%3E%3C%2Froot%3E%3C%2FmxGraphModel%3E&lt;/span&gt;" style="text;html=1;align=center;verticalAlign=middle;whiteSpace=wrap;rounded=0;" parent="1" vertex="1">
          <mxGeometry x="714" y="239" width="87" height="30" as="geometry" />
        </mxCell>
      </root>
    </mxGraphModel>
  </diagram>
</mxfile>
